<mxfile host="Electron" modified="2025-01-22T13:03:29.857Z" agent="Mozilla/5.0 (Macintosh; Intel Mac OS X 10_15_7) AppleWebKit/537.36 (KHTML, like Gecko) draw.io/24.5.1 Chrome/124.0.6367.207 Electron/30.0.6 Safari/537.36" etag="P4OSJP706DuzFn4bX7rH" version="24.5.1" type="device">
  <diagram id="CNRvUmCUOl8FaEi8uVfI" name="growthbook">
    <mxGraphModel dx="1174" dy="436" grid="1" gridSize="10" guides="1" tooltips="1" connect="1" arrows="1" fold="1" page="1" pageScale="1" pageWidth="850" pageHeight="1100" math="0" shadow="0">
      <root>
        <mxCell id="0" />
        <mxCell id="1" parent="0" />
        <mxCell id="KcPOCeWXQUCBt0vuWGm0-2" value="" style="whiteSpace=wrap;html=1;dashed=1;strokeColor=#2D3748;" parent="1" vertex="1">
          <mxGeometry x="154" y="10" width="736" height="460" as="geometry" />
        </mxCell>
        <mxCell id="KcPOCeWXQUCBt0vuWGm0-9" value="" style="whiteSpace=wrap;html=1;fillColor=default;dashed=1;" parent="1" vertex="1">
          <mxGeometry x="181" y="206" width="669" height="234" as="geometry" />
        </mxCell>
        <mxCell id="KcPOCeWXQUCBt0vuWGm0-11" value="App-namespace" style="whiteSpace=wrap;html=1;fontSize=9;fillColor=none;fontColor=#333333;strokeColor=none;fontStyle=1;align=left;" parent="1" vertex="1">
          <mxGeometry x="181" y="186" width="80" height="20" as="geometry" />
        </mxCell>
        <mxCell id="KcPOCeWXQUCBt0vuWGm0-12" value="" style="whiteSpace=wrap;html=1;container=0;fillColor=#f5f5f5;fontColor=#333333;strokeColor=#666666;" parent="1" vertex="1">
          <mxGeometry x="209" y="250" width="192" height="80" as="geometry" />
        </mxCell>
        <mxCell id="FQWdSzfLES44VIhiBNn8-4" value="" style="whiteSpace=wrap;html=1;container=0;dashed=1;" parent="1" vertex="1">
          <mxGeometry x="480" y="263" width="350" height="120" as="geometry" />
        </mxCell>
        <mxCell id="FQWdSzfLES44VIhiBNn8-6" value="Feature Flags" style="whiteSpace=wrap;html=1;fontSize=7;fillColor=none;strokeColor=none;fontColor=#333333;fontStyle=1" parent="1" vertex="1">
          <mxGeometry x="490" y="271" width="58" height="12" as="geometry" />
        </mxCell>
        <mxCell id="FQWdSzfLES44VIhiBNn8-7" value="FeatureFlag" style="whiteSpace=wrap;html=1;fontSize=12;fillColor=#f5f5f5;fontColor=#333333;strokeColor=#666666;" parent="1" vertex="1">
          <mxGeometry x="700" y="283" width="112" height="26" as="geometry" />
        </mxCell>
        <mxCell id="FQWdSzfLES44VIhiBNn8-24" style="edgeStyle=orthogonalEdgeStyle;rounded=0;orthogonalLoop=1;jettySize=auto;html=1;entryX=0;entryY=0.5;entryDx=0;entryDy=0;" parent="1" source="FQWdSzfLES44VIhiBNn8-9" target="FQWdSzfLES44VIhiBNn8-7" edge="1">
          <mxGeometry relative="1" as="geometry">
            <Array as="points">
              <mxPoint x="660" y="326" />
              <mxPoint x="660" y="296" />
            </Array>
          </mxGeometry>
        </mxCell>
        <mxCell id="FQWdSzfLES44VIhiBNn8-29" style="edgeStyle=orthogonalEdgeStyle;rounded=0;orthogonalLoop=1;jettySize=auto;html=1;entryX=0;entryY=0.5;entryDx=0;entryDy=0;" parent="1" source="FQWdSzfLES44VIhiBNn8-9" target="FQWdSzfLES44VIhiBNn8-26" edge="1">
          <mxGeometry relative="1" as="geometry" />
        </mxCell>
        <mxCell id="FQWdSzfLES44VIhiBNn8-30" style="edgeStyle=orthogonalEdgeStyle;rounded=0;orthogonalLoop=1;jettySize=auto;html=1;entryX=0;entryY=0.5;entryDx=0;entryDy=0;" parent="1" source="FQWdSzfLES44VIhiBNn8-9" target="FQWdSzfLES44VIhiBNn8-27" edge="1">
          <mxGeometry relative="1" as="geometry">
            <Array as="points">
              <mxPoint x="660" y="326" />
              <mxPoint x="660" y="356" />
            </Array>
          </mxGeometry>
        </mxCell>
        <mxCell id="FQWdSzfLES44VIhiBNn8-9" value="FeatureFlagSource" style="whiteSpace=wrap;html=1;fontSize=12;fillColor=#fff2cc;strokeColor=#d6b656;" parent="1" vertex="1">
          <mxGeometry x="500" y="302.5" width="123" height="47" as="geometry" />
        </mxCell>
        <mxCell id="FQWdSzfLES44VIhiBNn8-21" style="edgeStyle=orthogonalEdgeStyle;rounded=0;orthogonalLoop=1;jettySize=auto;html=1;entryX=0;entryY=0.5;entryDx=0;entryDy=0;" parent="1" source="FQWdSzfLES44VIhiBNn8-14" target="FQWdSzfLES44VIhiBNn8-9" edge="1">
          <mxGeometry relative="1" as="geometry" />
        </mxCell>
        <mxCell id="GPconM0hVhQ56CV5nqRe-1" style="edgeStyle=orthogonalEdgeStyle;rounded=0;orthogonalLoop=1;jettySize=auto;html=1;entryX=0.5;entryY=1;entryDx=0;entryDy=0;" edge="1" parent="1" source="FQWdSzfLES44VIhiBNn8-14" target="FQWdSzfLES44VIhiBNn8-36">
          <mxGeometry relative="1" as="geometry">
            <Array as="points">
              <mxPoint x="420" y="372" />
              <mxPoint x="420" y="80" />
            </Array>
          </mxGeometry>
        </mxCell>
        <mxCell id="FQWdSzfLES44VIhiBNn8-14" value="App Deployment Ref" style="whiteSpace=wrap;html=1;fontSize=12;fillColor=#dae8fc;strokeColor=#6c8ebf;" parent="1" vertex="1">
          <mxGeometry x="220" y="354" width="170" height="36" as="geometry" />
        </mxCell>
        <mxCell id="FQWdSzfLES44VIhiBNn8-17" value="K8S Cluster" style="whiteSpace=wrap;html=1;fontSize=9;fillColor=default;fontColor=#000000;strokeColor=none;fontStyle=1;align=center;" parent="1" vertex="1">
          <mxGeometry x="181" y="150" width="80" height="20" as="geometry" />
        </mxCell>
        <mxCell id="FQWdSzfLES44VIhiBNn8-26" value="FeatureFlag" style="whiteSpace=wrap;html=1;fontSize=12;fillColor=#f5f5f5;fontColor=#333333;strokeColor=#666666;" parent="1" vertex="1">
          <mxGeometry x="700" y="313" width="112" height="26" as="geometry" />
        </mxCell>
        <mxCell id="FQWdSzfLES44VIhiBNn8-27" value="FeatureFlag" style="whiteSpace=wrap;html=1;fontSize=12;fillColor=#f5f5f5;fontColor=#333333;strokeColor=#666666;" parent="1" vertex="1">
          <mxGeometry x="700" y="343" width="112" height="26" as="geometry" />
        </mxCell>
        <mxCell id="FQWdSzfLES44VIhiBNn8-32" value="NodeJS App Container" style="whiteSpace=wrap;html=1;fillColor=#dae8fc;strokeColor=#6c8ebf;" parent="1" vertex="1">
          <mxGeometry x="220" y="260" width="170" height="26" as="geometry" />
        </mxCell>
        <mxCell id="FQWdSzfLES44VIhiBNn8-33" value="Flagd Sidecar" style="whiteSpace=wrap;html=1;fillColor=#d5e8d4;strokeColor=#82b366;" parent="1" vertex="1">
          <mxGeometry x="220" y="294" width="170" height="26" as="geometry" />
        </mxCell>
        <mxCell id="FQWdSzfLES44VIhiBNn8-34" value="Application POD" style="whiteSpace=wrap;html=1;fontSize=9;fillColor=none;fontColor=#333333;strokeColor=none;fontStyle=1;align=left;" parent="1" vertex="1">
          <mxGeometry x="209" y="230" width="80" height="20" as="geometry" />
        </mxCell>
        <mxCell id="FQWdSzfLES44VIhiBNn8-36" value="Open Feature Operator" style="whiteSpace=wrap;html=1;fillColor=#f5f5f5;fontColor=#333333;strokeColor=#666666;" parent="1" vertex="1">
          <mxGeometry x="462" y="40" width="120" height="40" as="geometry" />
        </mxCell>
        <mxCell id="GPconM0hVhQ56CV5nqRe-3" value="Teste A/B" style="text;html=1;align=center;verticalAlign=middle;resizable=0;points=[];autosize=1;strokeColor=none;fillColor=none;fontStyle=1" vertex="1" parent="1">
          <mxGeometry x="181" y="580" width="70" height="30" as="geometry" />
        </mxCell>
      </root>
    </mxGraphModel>
  </diagram>
</mxfile>
